<svg xmlns="http://www.w3.org/2000/svg" width="595.3" height="367.54" viewBox="0 0 595.3 367.54"><defs><style>.a{fill:#e8ecf1;}.b{fill:#fff;}</style></defs><g transform="translate(297.65 183.77)"><g transform="translate(-297.65 -183.77)"><rect class="a" width="595.3" height="367.54"/><path class="b" d="M290.8,94.6V276.9h-9V146.7H212.3l-7.7-13.3,7.7-13.3h69.5V94.6ZM383,120.2l7.7,13.3L383,146.7H320.1V120.2H383m-23.9,60.6,7.6,13.3-7.6,13.3h-39V180.8h39M299.8,85.6h-27v25.6H207.1l-12.9,22.3,12.9,22.3h65.7V285.9h27Zm88.4,25.6H311.1v44.5h77.1L401,133.4Zm-23.9,60.6H311.1v44.5h53.1L377.1,194Z"/></g></g></svg>