<svg xmlns="http://www.w3.org/2000/svg" xmlns:xlink="http://www.w3.org/1999/xlink" width="595.3" height="367.54" viewBox="0 0 595.3 367.54"><defs><style>.a,.e{fill:none;}.b{fill:#e8ecf1;}.c{clip-path:url(#a);}.d{fill:#fff;}.e{stroke:#fff;stroke-miterlimit:10;stroke-width:9px;}</style><clipPath id="a"><rect class="a" width="595.3" height="367.54"/></clipPath></defs><g transform="translate(297.65 183.77)"><g transform="translate(-297.65 -183.77)"><rect class="b" width="595.3" height="367.54"/><g class="c"><path class="d" d="M333.7,88.7h-1.6a2,2,0,0,0-2,2v42.9H324V90.7a2,2,0,0,0-2-2h-1.6a2,2,0,0,0-2,2v42.9h-6V90.7a2,2,0,0,0-2-2H308a2,2,0,0,0-2,2v65.1c8.4.1,11,6.3,11.7,9.9.5,30.6-7.5,57.2-7.5,81.6,0,30.1,4.8,31.7,10.8,31.7s11.9-1.7,11.9-31.7c0-24.3-7.2-50-7.7-81.9,1.2-12.5,11.8-9.5,11.8-9.5V90.7c0-1.1-2-2-3.1-2"/><path class="d" d="M383.9,90.2c-.2-4.2-6,.9-9.6,8.7s-7,72.8-6.2,77.4,5.7.3,9.8,4.9c-1.1,25.2-7.2,45.7-7.2,66.9,0,29.4,3.3,31.1,7.4,31.1s7.4-1.6,7.4-31.1v-4.8c.2-16.1.6-63.8.9-78.1S384,90.4,384,90.4"/><path class="d" d="M242.9,97.7l17.9.2c4.4,16.9,7,32,9.6,47.9,1,5.9,2,11.9,3.1,18.2a22.887,22.887,0,0,1-5.9,20.5c-5.4,6-13.4,10.1-16,11.4a35.4,35.4,0,0,1-6.9,2.7l-2.7.5-2.1-.4a76.3,76.3,0,0,1-8.9-3.3c-22.9-9.5-19.4-31-19.3-31.3.7-3.7,1.7-8.8,2.8-14.7,3-16.1,7.4-39.8,10.7-51.5l17.8-.2h0m0-9h0l-19.8.3c-2.1.1-5.4,2.2-6,4.1-4.7,14.8-11.4,54.1-14.3,69.3-1.4,7.1-.9,30.7,24.7,41.3,7.5,3.1,10.4,3.7,10.4,3.7v59.7s-22.4,9.3-22.2,9.8,3.7,1.7,10,2.1h1c4.8,0,10-2.5,15.9-2.5s12.5,2.4,17.2,2.4h1c5.1-.4,8.5-1.1,8.3-2.1s-21.7-9.8-21.7-9.8l-.9-59.8a41.6,41.6,0,0,0,9-3.4c9.9-4.9,31.2-17.2,26.8-41.5s-6.9-45.4-14-70.7c-.4-1.5-3.4-2.6-5.1-2.7L243,88.7"/><line class="e" x2="67.5" transform="translate(208.6 164.7)"/></g></g></g></svg>