<svg xmlns="http://www.w3.org/2000/svg" width="16" height="16" viewBox="0 0 16 16"><defs><style>.a,.b{fill:none;}.b{stroke:#000;stroke-linecap:round;stroke-linejoin:round;stroke-width:1.25px;}</style></defs><g transform="translate(0.493 0.2)"><g transform="translate(-0.54)"><path class="a" d="M3.2,2.3h10a1.367,1.367,0,0,1,1.4,1.4v9.7a1.43,1.43,0,0,1-1.4,1.4H3.2a1.367,1.367,0,0,1-1.4-1.4V3.7A1.367,1.367,0,0,1,3.2,2.3Z"/><path d="M3.2,3.6a.349.349,0,0,0-.2.1v9.7c0,.1.1.1.2.1h10a.349.349,0,0,0,.2-.1V3.7c0-.1-.1-.1-.2-.1H3.2m0-1.3h10a1.367,1.367,0,0,1,1.4,1.4v9.7a1.367,1.367,0,0,1-1.4,1.4H3.2a1.367,1.367,0,0,1-1.4-1.4V3.7A1.43,1.43,0,0,1,3.2,2.3Z"/></g><path class="b" d="M10.3,1.2V3.5"/><path class="b" d="M5.1,1.2V3.5"/><path class="b" d="M2,6.4H13.3"/></g><rect class="a" width="16" height="16"/></svg>