<svg xmlns="http://www.w3.org/2000/svg" width="16" height="16" viewBox="0 0 16 16"><defs><style>.a{fill:none;}</style></defs><path d="M10.9,5.2A3.847,3.847,0,0,0,8,4V8.1L5.2,11a4.2,4.2,0,0,0,5.8.1,4.137,4.137,0,0,0-.1-5.9Z" transform="translate(-0.2 0)"/><g transform="translate(-1397.534 -337.033)"><g transform="translate(1397.334 336.833)"><path d="M8.2,2.4A5.8,5.8,0,0,0,2.4,8.2a5.7,5.7,0,0,0,5.7,5.7A5.751,5.751,0,0,0,8.2,2.4m0-1.2a6.957,6.957,0,0,1,7,7,6.957,6.957,0,0,1-7,7,6.957,6.957,0,0,1-7-7A6.957,6.957,0,0,1,8.2,1.2Z"/></g></g><rect class="a" width="16" height="16"/></svg>