<svg xmlns="http://www.w3.org/2000/svg" width="16" height="16" viewBox="0 0 16 16"><defs><style>.a{fill:#010202;}.b{fill:none;}</style></defs><path class="a" d="M8.1,2.8,6.7,5.6l-.3.6-.7.1-3,.5L4.9,9.1l.4.4-.1.6-.5,3.3L7.3,12l.6-.3.6.3,2.7,1.4-.5-3.2-.1-.6.4-.5,2.3-2.3-3-.5-.7-.1-.2-.6L8.1,2.8M8.1,1a1.02,1.02,0,0,1,.8.5l1.6,3.6,3.8.6a.824.824,0,0,1,.4,1.4L11.9,10l.6,3.9a.955.955,0,0,1-.9,1.1.6.6,0,0,1-.4-.1L7.9,13.1,4.6,15H4.3a.955.955,0,0,1-.9-1.1L4,10,1.2,7.1a.849.849,0,0,1,.5-1.4l3.9-.6L7.3,1.5A1.02,1.02,0,0,1,8.1,1Z" transform="translate(0.004)"/><rect class="b" width="16" height="16"/></svg>