<svg xmlns="http://www.w3.org/2000/svg" width="16" height="16" viewBox="0 0 16 16"><defs><style>.a,.b{fill:none;}.a{stroke:#000;stroke-width:1.25px;}</style></defs><g transform="translate(-1397.501 -336.487)"><path d="M8,2.2A5.8,5.8,0,0,0,2.2,8a5.7,5.7,0,0,0,5.7,5.7A5.763,5.763,0,0,0,13.6,8,5.7,5.7,0,0,0,8,2.2M8,1a6.957,6.957,0,0,1,7,7,6.957,6.957,0,0,1-7,7A6.957,6.957,0,0,1,1,8,6.957,6.957,0,0,1,8,1Z" transform="translate(1397.501 336.487)"/><path class="a" d="M8,7.2v4" transform="translate(1397.501 336.487)"/><line class="a" y2="1" transform="translate(1405.501 341.687)"/></g><rect class="b" width="16" height="16"/></svg>