<svg xmlns="http://www.w3.org/2000/svg" width="16" height="16" viewBox="0 0 16 16"><defs><style>.a{fill:none;}</style></defs><g transform="translate(2.5 1)"><path class="a" d="M5.4,0a5.378,5.378,0,0,1,5.4,5.4h0c0,3-5.4,9-5.4,9S0,8.4,0,5.4A5.378,5.378,0,0,1,5.4,0Z"/><path d="M5.4,1.2A4.14,4.14,0,0,0,1.3,5.4c0,.4.2,1.8,2.4,4.9.6.8,1.2,1.6,1.7,2.2a24.563,24.563,0,0,0,1.7-2.2C9.3,7.2,9.6,5.8,9.6,5.4A4.292,4.292,0,0,0,5.4,1.2M5.4,0a5.378,5.378,0,0,1,5.4,5.4c0,3-5.4,9-5.4,9S0,8.4,0,5.4A5.378,5.378,0,0,1,5.4,0Z"/></g><circle cx="1.5" cy="1.5" r="1.5" transform="translate(6.5 4.9)"/><rect class="a" width="16" height="16"/></svg>