<svg xmlns="http://www.w3.org/2000/svg" width="16" height="16" viewBox="0 0 16 16"><defs><style>.a,.b{fill:none;}.b{stroke:#000;stroke-linecap:round;stroke-linejoin:round;stroke-width:1.25px;}</style></defs><rect class="a" width="16" height="16"/><path class="b" d="M14.269,11.328V13a1.116,1.116,0,0,1-1.217,1.116,11.047,11.047,0,0,1-4.817-1.714A10.885,10.885,0,0,1,4.886,9.056a11.047,11.047,0,0,1-1.714-4.84A1.116,1.116,0,0,1,4.283,3H5.958a1.116,1.116,0,0,1,1.116.96,7.167,7.167,0,0,0,.391,1.569,1.116,1.116,0,0,1-.251,1.178L6.5,7.415a8.931,8.931,0,0,0,3.349,3.349l.709-.709A1.116,1.116,0,0,1,11.741,9.8a7.167,7.167,0,0,0,1.569.391A1.116,1.116,0,0,1,14.269,11.328Z" transform="translate(-0.668 -0.424)"/></svg>