<svg xmlns="http://www.w3.org/2000/svg" xmlns:xlink="http://www.w3.org/1999/xlink" width="595.3" height="367.54" viewBox="0 0 595.3 367.54"><defs><style>.a,.d{fill:none;}.b{fill:#e8ecf1;}.c{clip-path:url(#a);}.d{stroke:#fff;stroke-miterlimit:10;stroke-width:9px;}.e{fill:#fff;}</style><clipPath id="a"><rect class="a" width="595.3" height="367.54"/></clipPath></defs><g transform="translate(297.65 183.77)"><g transform="translate(-297.65 -183.77)"><rect class="b" width="595.3" height="367.54"/><g class="c"><path class="d" d="M259.3,149.1h-29c-14.7,0-26.7,12.5-26.7,27.8v74.6c0,15.3,12,27.8,26.7,27.8H365c14.7,0,26.7-12.5,26.7-27.8V176.9c0-15.3-12-27.8-26.7-27.8H335.1"/><path class="e" d="M298,118.5a12.1,12.1,0,1,1-12.1,12.1A12.1,12.1,0,0,1,298,118.5m0-9a21.1,21.1,0,1,0,21.1,21.1A21.1,21.1,0,0,0,298,109.5"/><line class="d" x2="183.8" transform="translate(205.7 240.2)"/><line class="d" x2="79" transform="translate(205.7 194.8)"/><line class="d" x2="76.4" transform="translate(313.7 194.8)"/><line class="d" y1="130.5" transform="translate(261.2 146.7)"/><line class="d" y1="125.2" transform="translate(333 152)"/><path class="d" d="M335.2,147.3a43.4,43.4,0,0,0,3.4-16.9c0-23.2-18.1-42.1-40.4-42.1s-40.4,18.9-40.4,42.1a43.4,43.4,0,0,0,3.3,16.6l.2.5L295,221.7a3.6,3.6,0,0,0,6.6,0l33.7-74.2v-.2"/></g></g></g></svg>